<mxfile host="drawio-plugin" modified="2022-09-06T18:59:06.631Z" agent="5.0 (Windows NT 6.2; Win64; x64) AppleWebKit/537.36 (KHTML, like Gecko) Chrome/98.0.4758.102 Safari/537.36" etag="TdFldkPkzh8WyVutHvuY" version="15.5.4" type="embed" pages="2"><diagram id="pXfxzo5OtAQyNov0k9WW" name="Model1"><mxGraphModel dx="2587" dy="747" grid="1" gridSize="10" guides="1" tooltips="1" connect="1" arrows="1" fold="1" page="1" pageScale="1" pageWidth="827" pageHeight="1169" math="0" shadow="0"><root><mxCell id="0"/><mxCell id="1" parent="0"/><mxCell id="NnxXpIUPMaE3DA70FvVw-2" value="" style="group" parent="1" vertex="1" connectable="0"><mxGeometry x="340" y="130" width="160" height="70" as="geometry"/></mxCell><mxCell id="uYxiBj5m_hy0c6OaF6v8-1" value="" style="rounded=0;whiteSpace=wrap;html=1;" parent="NnxXpIUPMaE3DA70FvVw-2" vertex="1"><mxGeometry width="160" height="70" as="geometry"/></mxCell><mxCell id="NnxXpIUPMaE3DA70FvVw-1" value="&lt;font style=&quot;font-size: 20px;&quot;&gt;Benutzer&lt;/font&gt;" style="text;html=1;strokeColor=none;fillColor=none;align=center;verticalAlign=middle;whiteSpace=wrap;rounded=0;" parent="NnxXpIUPMaE3DA70FvVw-2" vertex="1"><mxGeometry x="40" y="19.444444444444446" width="80" height="31.11111111111111" as="geometry"/></mxCell><mxCell id="NnxXpIUPMaE3DA70FvVw-6" value="" style="group" parent="1" vertex="1" connectable="0"><mxGeometry x="370" y="20" width="100" height="60" as="geometry"/></mxCell><mxCell id="NnxXpIUPMaE3DA70FvVw-4" value="" style="ellipse;whiteSpace=wrap;html=1;fontSize=29;" parent="NnxXpIUPMaE3DA70FvVw-6" vertex="1"><mxGeometry width="100" height="60" as="geometry"/></mxCell><mxCell id="NnxXpIUPMaE3DA70FvVw-5" value="&lt;font style=&quot;font-size: 15px;&quot;&gt;&lt;u&gt;UUID&lt;/u&gt;&lt;/font&gt;" style="text;html=1;strokeColor=none;fillColor=none;align=center;verticalAlign=middle;whiteSpace=wrap;rounded=0;fontSize=29;" parent="NnxXpIUPMaE3DA70FvVw-6" vertex="1"><mxGeometry x="25" y="18.75" width="50" height="22.5" as="geometry"/></mxCell><mxCell id="NnxXpIUPMaE3DA70FvVw-10" style="edgeStyle=orthogonalEdgeStyle;rounded=0;orthogonalLoop=1;jettySize=auto;html=1;exitX=0.5;exitY=1;exitDx=0;exitDy=0;entryX=0.5;entryY=0;entryDx=0;entryDy=0;fontSize=20;" parent="1" source="NnxXpIUPMaE3DA70FvVw-4" target="uYxiBj5m_hy0c6OaF6v8-1" edge="1"><mxGeometry relative="1" as="geometry"/></mxCell><mxCell id="NnxXpIUPMaE3DA70FvVw-13" value="" style="group" parent="1" vertex="1" connectable="0"><mxGeometry x="-50" y="330" width="160" height="70" as="geometry"/></mxCell><mxCell id="NnxXpIUPMaE3DA70FvVw-14" value="" style="rounded=0;whiteSpace=wrap;html=1;" parent="NnxXpIUPMaE3DA70FvVw-13" vertex="1"><mxGeometry width="160" height="70" as="geometry"/></mxCell><mxCell id="NnxXpIUPMaE3DA70FvVw-15" value="&lt;font style=&quot;font-size: 20px;&quot;&gt;Gruppen&lt;/font&gt;" style="text;html=1;strokeColor=none;fillColor=none;align=center;verticalAlign=middle;whiteSpace=wrap;rounded=0;" parent="NnxXpIUPMaE3DA70FvVw-13" vertex="1"><mxGeometry x="40" y="19.444444444444446" width="80" height="31.11111111111111" as="geometry"/></mxCell><mxCell id="NnxXpIUPMaE3DA70FvVw-18" style="rounded=0;orthogonalLoop=1;jettySize=auto;html=1;exitX=1;exitY=0;exitDx=0;exitDy=0;entryX=0;entryY=1;entryDx=0;entryDy=0;fontSize=15;endArrow=none;endFill=0;" parent="1" source="NnxXpIUPMaE3DA70FvVw-16" target="uYxiBj5m_hy0c6OaF6v8-1" edge="1"><mxGeometry relative="1" as="geometry"/></mxCell><mxCell id="NnxXpIUPMaE3DA70FvVw-22" value="0:n" style="edgeLabel;html=1;align=center;verticalAlign=middle;resizable=0;points=[];fontSize=15;" parent="NnxXpIUPMaE3DA70FvVw-18" vertex="1" connectable="0"><mxGeometry x="0.5897" y="1" relative="1" as="geometry"><mxPoint as="offset"/></mxGeometry></mxCell><mxCell id="NnxXpIUPMaE3DA70FvVw-16" value="zugeordnet" style="rhombus;whiteSpace=wrap;html=1;fontSize=15;" parent="1" vertex="1"><mxGeometry x="190" y="220" width="80" height="80" as="geometry"/></mxCell><mxCell id="NnxXpIUPMaE3DA70FvVw-17" style="rounded=0;orthogonalLoop=1;jettySize=auto;html=1;exitX=1;exitY=0;exitDx=0;exitDy=0;entryX=0;entryY=1;entryDx=0;entryDy=0;fontSize=15;endArrow=none;endFill=0;" parent="1" source="NnxXpIUPMaE3DA70FvVw-14" target="NnxXpIUPMaE3DA70FvVw-16" edge="1"><mxGeometry relative="1" as="geometry"/></mxCell><mxCell id="NnxXpIUPMaE3DA70FvVw-21" value="1:n" style="edgeLabel;html=1;align=center;verticalAlign=middle;resizable=0;points=[];fontSize=15;" parent="NnxXpIUPMaE3DA70FvVw-17" vertex="1" connectable="0"><mxGeometry x="-0.576" y="-4" relative="1" as="geometry"><mxPoint as="offset"/></mxGeometry></mxCell><mxCell id="NnxXpIUPMaE3DA70FvVw-26" style="edgeStyle=none;rounded=0;orthogonalLoop=1;jettySize=auto;html=1;exitX=0.5;exitY=1;exitDx=0;exitDy=0;entryX=0.5;entryY=0;entryDx=0;entryDy=0;fontSize=15;endArrow=none;endFill=0;" parent="1" source="NnxXpIUPMaE3DA70FvVw-23" target="NnxXpIUPMaE3DA70FvVw-14" edge="1"><mxGeometry relative="1" as="geometry"/></mxCell><mxCell id="NnxXpIUPMaE3DA70FvVw-23" value="Name" style="ellipse;whiteSpace=wrap;html=1;fontSize=15;container=1;" parent="1" vertex="1"><mxGeometry x="-50" y="230" width="110" height="50" as="geometry"><mxRectangle x="-50" y="230" width="70" height="20" as="alternateBounds"/></mxGeometry></mxCell><mxCell id="NnxXpIUPMaE3DA70FvVw-25" style="edgeStyle=none;rounded=0;orthogonalLoop=1;jettySize=auto;html=1;exitX=0.5;exitY=1;exitDx=0;exitDy=0;entryX=0;entryY=0.5;entryDx=0;entryDy=0;fontSize=15;endArrow=none;endFill=0;" parent="1" source="NnxXpIUPMaE3DA70FvVw-24" target="NnxXpIUPMaE3DA70FvVw-14" edge="1"><mxGeometry relative="1" as="geometry"/></mxCell><mxCell id="NnxXpIUPMaE3DA70FvVw-24" value="&lt;u&gt;UUID&lt;/u&gt;" style="ellipse;whiteSpace=wrap;html=1;fontSize=15;container=1;" parent="1" vertex="1"><mxGeometry x="-220" y="330" width="110" height="50" as="geometry"/></mxCell><mxCell id="NnxXpIUPMaE3DA70FvVw-27" value="" style="group" parent="1" vertex="1" connectable="0"><mxGeometry x="350" y="510" width="160" height="70" as="geometry"/></mxCell><mxCell id="NnxXpIUPMaE3DA70FvVw-28" value="" style="rounded=0;whiteSpace=wrap;html=1;" parent="NnxXpIUPMaE3DA70FvVw-27" vertex="1"><mxGeometry width="160" height="70" as="geometry"/></mxCell><mxCell id="NnxXpIUPMaE3DA70FvVw-29" value="&lt;font style=&quot;font-size: 20px;&quot;&gt;Karten&lt;br&gt;(Dienste)&lt;br&gt;&lt;/font&gt;" style="text;html=1;strokeColor=none;fillColor=none;align=center;verticalAlign=middle;whiteSpace=wrap;rounded=0;" parent="NnxXpIUPMaE3DA70FvVw-27" vertex="1"><mxGeometry x="40" y="19.444444444444446" width="80" height="31.11111111111111" as="geometry"/></mxCell><mxCell id="NnxXpIUPMaE3DA70FvVw-33" style="edgeStyle=none;rounded=0;orthogonalLoop=1;jettySize=auto;html=1;exitX=0;exitY=0;exitDx=0;exitDy=0;entryX=1;entryY=1;entryDx=0;entryDy=0;fontSize=15;endArrow=none;endFill=0;" parent="1" source="NnxXpIUPMaE3DA70FvVw-30" target="NnxXpIUPMaE3DA70FvVw-14" edge="1"><mxGeometry relative="1" as="geometry"/></mxCell><mxCell id="NnxXpIUPMaE3DA70FvVw-35" value="0:n" style="edgeLabel;html=1;align=center;verticalAlign=middle;resizable=0;points=[];fontSize=15;" parent="NnxXpIUPMaE3DA70FvVw-33" vertex="1" connectable="0"><mxGeometry x="0.6" relative="1" as="geometry"><mxPoint as="offset"/></mxGeometry></mxCell><mxCell id="NnxXpIUPMaE3DA70FvVw-30" value="zugewiesen" style="rhombus;whiteSpace=wrap;html=1;fontSize=15;" parent="1" vertex="1"><mxGeometry x="190" y="440" width="80" height="80" as="geometry"/></mxCell><mxCell id="NnxXpIUPMaE3DA70FvVw-32" style="edgeStyle=none;rounded=0;orthogonalLoop=1;jettySize=auto;html=1;exitX=0;exitY=0.5;exitDx=0;exitDy=0;entryX=1;entryY=1;entryDx=0;entryDy=0;fontSize=15;endArrow=none;endFill=0;" parent="1" source="NnxXpIUPMaE3DA70FvVw-28" target="NnxXpIUPMaE3DA70FvVw-30" edge="1"><mxGeometry relative="1" as="geometry"/></mxCell><mxCell id="NnxXpIUPMaE3DA70FvVw-34" value="1:1" style="edgeLabel;html=1;align=center;verticalAlign=middle;resizable=0;points=[];fontSize=15;" parent="NnxXpIUPMaE3DA70FvVw-32" vertex="1" connectable="0"><mxGeometry x="-0.3969" relative="1" as="geometry"><mxPoint as="offset"/></mxGeometry></mxCell><mxCell id="NnxXpIUPMaE3DA70FvVw-41" style="edgeStyle=none;rounded=0;orthogonalLoop=1;jettySize=auto;html=1;exitX=0;exitY=0.5;exitDx=0;exitDy=0;entryX=1;entryY=0;entryDx=0;entryDy=0;fontSize=15;endArrow=none;endFill=0;" parent="1" source="NnxXpIUPMaE3DA70FvVw-36" target="NnxXpIUPMaE3DA70FvVw-28" edge="1"><mxGeometry relative="1" as="geometry"/></mxCell><mxCell id="NnxXpIUPMaE3DA70FvVw-36" value="Name" style="ellipse;whiteSpace=wrap;html=1;fontSize=15;container=1;" parent="1" vertex="1"><mxGeometry x="580" y="490" width="110" height="50" as="geometry"/></mxCell><mxCell id="NnxXpIUPMaE3DA70FvVw-42" style="edgeStyle=none;rounded=0;orthogonalLoop=1;jettySize=auto;html=1;exitX=0;exitY=0.5;exitDx=0;exitDy=0;entryX=1;entryY=0.5;entryDx=0;entryDy=0;fontSize=15;endArrow=none;endFill=0;" parent="1" source="NnxXpIUPMaE3DA70FvVw-37" target="NnxXpIUPMaE3DA70FvVw-28" edge="1"><mxGeometry relative="1" as="geometry"/></mxCell><mxCell id="NnxXpIUPMaE3DA70FvVw-37" value="Beschreibung" style="ellipse;whiteSpace=wrap;html=1;fontSize=15;container=1;" parent="1" vertex="1"><mxGeometry x="560" y="570" width="110" height="50" as="geometry"/></mxCell><mxCell id="NnxXpIUPMaE3DA70FvVw-43" style="edgeStyle=none;rounded=0;orthogonalLoop=1;jettySize=auto;html=1;exitX=0.5;exitY=0;exitDx=0;exitDy=0;entryX=0.75;entryY=1;entryDx=0;entryDy=0;fontSize=15;endArrow=none;endFill=0;" parent="1" source="NnxXpIUPMaE3DA70FvVw-38" target="NnxXpIUPMaE3DA70FvVw-28" edge="1"><mxGeometry relative="1" as="geometry"/></mxCell><mxCell id="NnxXpIUPMaE3DA70FvVw-38" value="&lt;u&gt;UUID&lt;/u&gt;" style="ellipse;whiteSpace=wrap;html=1;fontSize=15;container=1;" parent="1" vertex="1"><mxGeometry x="440" y="630" width="110" height="50" as="geometry"/></mxCell><mxCell id="NnxXpIUPMaE3DA70FvVw-40" style="edgeStyle=none;rounded=0;orthogonalLoop=1;jettySize=auto;html=1;exitX=0;exitY=1;exitDx=0;exitDy=0;entryX=0.5;entryY=0;entryDx=0;entryDy=0;fontSize=15;endArrow=none;endFill=0;" parent="1" source="NnxXpIUPMaE3DA70FvVw-39" target="NnxXpIUPMaE3DA70FvVw-28" edge="1"><mxGeometry relative="1" as="geometry"/></mxCell><mxCell id="NnxXpIUPMaE3DA70FvVw-39" value="Erstellungsdatum" style="ellipse;whiteSpace=wrap;html=1;fontSize=15;container=1;" parent="1" vertex="1"><mxGeometry x="490" y="400" width="110" height="50" as="geometry"/></mxCell><mxCell id="2" value="" style="group" parent="1" vertex="1" connectable="0"><mxGeometry x="510" y="40" width="100" height="60" as="geometry"/></mxCell><mxCell id="3" value="" style="ellipse;whiteSpace=wrap;html=1;fontSize=29;" parent="2" vertex="1"><mxGeometry width="100" height="60" as="geometry"/></mxCell><mxCell id="4" value="&lt;font style=&quot;font-size: 15px&quot;&gt;&lt;u&gt;Firstname&lt;/u&gt;&lt;/font&gt;" style="text;html=1;strokeColor=none;fillColor=none;align=center;verticalAlign=middle;whiteSpace=wrap;rounded=0;fontSize=29;" parent="2" vertex="1"><mxGeometry x="25" y="18.75" width="50" height="22.5" as="geometry"/></mxCell><mxCell id="5" value="" style="group" parent="1" vertex="1" connectable="0"><mxGeometry x="570" y="140" width="100" height="60" as="geometry"/></mxCell><mxCell id="6" value="" style="ellipse;whiteSpace=wrap;html=1;fontSize=29;" parent="5" vertex="1"><mxGeometry width="100" height="60" as="geometry"/></mxCell><mxCell id="7" value="&lt;font style=&quot;font-size: 15px&quot;&gt;&lt;u&gt;Lastname&lt;/u&gt;&lt;/font&gt;" style="text;html=1;strokeColor=none;fillColor=none;align=center;verticalAlign=middle;whiteSpace=wrap;rounded=0;fontSize=29;" parent="5" vertex="1"><mxGeometry x="25" y="18.75" width="50" height="22.5" as="geometry"/></mxCell><mxCell id="15" value="" style="group" parent="1" vertex="1" connectable="0"><mxGeometry x="510" y="230" width="100" height="60" as="geometry"/></mxCell><mxCell id="16" value="" style="ellipse;whiteSpace=wrap;html=1;fontSize=29;" parent="15" vertex="1"><mxGeometry width="100" height="60" as="geometry"/></mxCell><mxCell id="17" value="&lt;font style=&quot;font-size: 15px&quot;&gt;&lt;u&gt;username&lt;/u&gt;&lt;/font&gt;" style="text;html=1;strokeColor=none;fillColor=none;align=center;verticalAlign=middle;whiteSpace=wrap;rounded=0;fontSize=29;" parent="15" vertex="1"><mxGeometry x="25" y="18.75" width="50" height="22.5" as="geometry"/></mxCell><mxCell id="18" value="" style="group" parent="1" vertex="1" connectable="0"><mxGeometry x="380" y="240" width="100" height="60" as="geometry"/></mxCell><mxCell id="19" value="" style="ellipse;whiteSpace=wrap;html=1;fontSize=29;" parent="18" vertex="1"><mxGeometry width="100" height="60" as="geometry"/></mxCell><mxCell id="20" value="&lt;font style=&quot;font-size: 15px&quot;&gt;&lt;u&gt;Password&lt;/u&gt;&lt;/font&gt;" style="text;html=1;strokeColor=none;fillColor=none;align=center;verticalAlign=middle;whiteSpace=wrap;rounded=0;fontSize=29;" parent="18" vertex="1"><mxGeometry x="25" y="18.75" width="50" height="22.5" as="geometry"/></mxCell><mxCell id="21" style="rounded=0;orthogonalLoop=1;jettySize=auto;html=1;exitX=0.5;exitY=1;exitDx=0;exitDy=0;" parent="1" source="uYxiBj5m_hy0c6OaF6v8-1" target="19" edge="1"><mxGeometry relative="1" as="geometry"/></mxCell><mxCell id="22" style="rounded=0;orthogonalLoop=1;jettySize=auto;html=1;exitX=1;exitY=0.75;exitDx=0;exitDy=0;entryX=0.5;entryY=0;entryDx=0;entryDy=0;" parent="1" source="uYxiBj5m_hy0c6OaF6v8-1" target="16" edge="1"><mxGeometry relative="1" as="geometry"/></mxCell><mxCell id="23" style="rounded=0;orthogonalLoop=1;jettySize=auto;html=1;exitX=1;exitY=0.5;exitDx=0;exitDy=0;entryX=0;entryY=0.5;entryDx=0;entryDy=0;" parent="1" source="uYxiBj5m_hy0c6OaF6v8-1" target="6" edge="1"><mxGeometry relative="1" as="geometry"/></mxCell><mxCell id="24" style="rounded=0;orthogonalLoop=1;jettySize=auto;html=1;exitX=0.75;exitY=0;exitDx=0;exitDy=0;entryX=0;entryY=1;entryDx=0;entryDy=0;" parent="1" source="uYxiBj5m_hy0c6OaF6v8-1" target="3" edge="1"><mxGeometry relative="1" as="geometry"/></mxCell></root></mxGraphModel></diagram><diagram id="R2lEEEUBdFMjLlhIrx00" name="Model2"><mxGraphModel dx="2359" dy="640" grid="1" gridSize="10" guides="1" tooltips="1" connect="1" arrows="1" fold="1" page="1" pageScale="1" pageWidth="850" pageHeight="1100" math="0" shadow="0" extFonts="Permanent Marker^https://fonts.googleapis.com/css?family=Permanent+Marker"><root><mxCell id="0"/><mxCell id="1" parent="0"/><mxCell id="C-vyLk0tnHw3VtMMgP7b-12" value="" style="edgeStyle=entityRelationEdgeStyle;endArrow=ERzeroToMany;startArrow=ERone;endFill=1;startFill=0;entryX=1;entryY=0.5;entryDx=0;entryDy=0;" parent="1" source="C-vyLk0tnHw3VtMMgP7b-3" target="crZ4OeYeE7MiuuLSWQfI-1" edge="1"><mxGeometry width="100" height="100" relative="1" as="geometry"><mxPoint x="400" y="180" as="sourcePoint"/><mxPoint x="460" y="205" as="targetPoint"/></mxGeometry></mxCell><mxCell id="C-vyLk0tnHw3VtMMgP7b-2" value="Gruppe" style="shape=table;startSize=30;container=1;collapsible=1;childLayout=tableLayout;fixedRows=1;rowLines=0;fontStyle=1;align=center;resizeLast=1;" parent="1" vertex="1"><mxGeometry x="450" y="90" width="250" height="130" as="geometry"/></mxCell><mxCell id="C-vyLk0tnHw3VtMMgP7b-3" value="" style="shape=partialRectangle;collapsible=0;dropTarget=0;pointerEvents=0;fillColor=none;points=[[0,0.5],[1,0.5]];portConstraint=eastwest;top=0;left=0;right=0;bottom=1;" parent="C-vyLk0tnHw3VtMMgP7b-2" vertex="1"><mxGeometry y="30" width="250" height="30" as="geometry"/></mxCell><mxCell id="C-vyLk0tnHw3VtMMgP7b-4" value="PK" style="shape=partialRectangle;overflow=hidden;connectable=0;fillColor=none;top=0;left=0;bottom=0;right=0;fontStyle=1;" parent="C-vyLk0tnHw3VtMMgP7b-3" vertex="1"><mxGeometry width="30" height="30" as="geometry"><mxRectangle width="30" height="30" as="alternateBounds"/></mxGeometry></mxCell><mxCell id="C-vyLk0tnHw3VtMMgP7b-5" value="UUID" style="shape=partialRectangle;overflow=hidden;connectable=0;fillColor=none;top=0;left=0;bottom=0;right=0;align=left;spacingLeft=6;fontStyle=5;" parent="C-vyLk0tnHw3VtMMgP7b-3" vertex="1"><mxGeometry x="30" width="220" height="30" as="geometry"><mxRectangle width="220" height="30" as="alternateBounds"/></mxGeometry></mxCell><mxCell id="C-vyLk0tnHw3VtMMgP7b-6" value="" style="shape=partialRectangle;collapsible=0;dropTarget=0;pointerEvents=0;fillColor=none;points=[[0,0.5],[1,0.5]];portConstraint=eastwest;top=0;left=0;right=0;bottom=0;" parent="C-vyLk0tnHw3VtMMgP7b-2" vertex="1"><mxGeometry y="60" width="250" height="30" as="geometry"/></mxCell><mxCell id="C-vyLk0tnHw3VtMMgP7b-7" value="" style="shape=partialRectangle;overflow=hidden;connectable=0;fillColor=none;top=0;left=0;bottom=0;right=0;" parent="C-vyLk0tnHw3VtMMgP7b-6" vertex="1"><mxGeometry width="30" height="30" as="geometry"><mxRectangle width="30" height="30" as="alternateBounds"/></mxGeometry></mxCell><mxCell id="C-vyLk0tnHw3VtMMgP7b-8" value="Name" style="shape=partialRectangle;overflow=hidden;connectable=0;fillColor=none;top=0;left=0;bottom=0;right=0;align=left;spacingLeft=6;" parent="C-vyLk0tnHw3VtMMgP7b-6" vertex="1"><mxGeometry x="30" width="220" height="30" as="geometry"><mxRectangle width="220" height="30" as="alternateBounds"/></mxGeometry></mxCell><mxCell id="C-vyLk0tnHw3VtMMgP7b-9" value="" style="shape=partialRectangle;collapsible=0;dropTarget=0;pointerEvents=0;fillColor=none;points=[[0,0.5],[1,0.5]];portConstraint=eastwest;top=0;left=0;right=0;bottom=0;" parent="C-vyLk0tnHw3VtMMgP7b-2" vertex="1"><mxGeometry y="90" width="250" height="30" as="geometry"/></mxCell><mxCell id="C-vyLk0tnHw3VtMMgP7b-10" value="" style="shape=partialRectangle;overflow=hidden;connectable=0;fillColor=none;top=0;left=0;bottom=0;right=0;" parent="C-vyLk0tnHw3VtMMgP7b-9" vertex="1"><mxGeometry width="30" height="30" as="geometry"><mxRectangle width="30" height="30" as="alternateBounds"/></mxGeometry></mxCell><mxCell id="C-vyLk0tnHw3VtMMgP7b-11" value="" style="shape=partialRectangle;overflow=hidden;connectable=0;fillColor=none;top=0;left=0;bottom=0;right=0;align=left;spacingLeft=6;" parent="C-vyLk0tnHw3VtMMgP7b-9" vertex="1"><mxGeometry x="30" width="220" height="30" as="geometry"><mxRectangle width="220" height="30" as="alternateBounds"/></mxGeometry></mxCell><mxCell id="C-vyLk0tnHw3VtMMgP7b-13" value="Karte (Dienst)" style="shape=table;startSize=30;container=1;collapsible=1;childLayout=tableLayout;fixedRows=1;rowLines=0;fontStyle=1;align=center;resizeLast=1;" parent="1" vertex="1"><mxGeometry x="450" y="280" width="250" height="190" as="geometry"/></mxCell><mxCell id="C-vyLk0tnHw3VtMMgP7b-14" value="" style="shape=partialRectangle;collapsible=0;dropTarget=0;pointerEvents=0;fillColor=none;points=[[0,0.5],[1,0.5]];portConstraint=eastwest;top=0;left=0;right=0;bottom=1;" parent="C-vyLk0tnHw3VtMMgP7b-13" vertex="1"><mxGeometry y="30" width="250" height="30" as="geometry"/></mxCell><mxCell id="C-vyLk0tnHw3VtMMgP7b-15" value="PK" style="shape=partialRectangle;overflow=hidden;connectable=0;fillColor=none;top=0;left=0;bottom=0;right=0;fontStyle=1;" parent="C-vyLk0tnHw3VtMMgP7b-14" vertex="1"><mxGeometry width="30" height="30" as="geometry"><mxRectangle width="30" height="30" as="alternateBounds"/></mxGeometry></mxCell><mxCell id="C-vyLk0tnHw3VtMMgP7b-16" value="UUID" style="shape=partialRectangle;overflow=hidden;connectable=0;fillColor=none;top=0;left=0;bottom=0;right=0;align=left;spacingLeft=6;fontStyle=5;" parent="C-vyLk0tnHw3VtMMgP7b-14" vertex="1"><mxGeometry x="30" width="220" height="30" as="geometry"><mxRectangle width="220" height="30" as="alternateBounds"/></mxGeometry></mxCell><mxCell id="C-vyLk0tnHw3VtMMgP7b-17" value="" style="shape=partialRectangle;collapsible=0;dropTarget=0;pointerEvents=0;fillColor=none;points=[[0,0.5],[1,0.5]];portConstraint=eastwest;top=0;left=0;right=0;bottom=0;" parent="C-vyLk0tnHw3VtMMgP7b-13" vertex="1"><mxGeometry y="60" width="250" height="30" as="geometry"/></mxCell><mxCell id="C-vyLk0tnHw3VtMMgP7b-18" value="" style="shape=partialRectangle;overflow=hidden;connectable=0;fillColor=none;top=0;left=0;bottom=0;right=0;" parent="C-vyLk0tnHw3VtMMgP7b-17" vertex="1"><mxGeometry width="30" height="30" as="geometry"><mxRectangle width="30" height="30" as="alternateBounds"/></mxGeometry></mxCell><mxCell id="C-vyLk0tnHw3VtMMgP7b-19" value="Name" style="shape=partialRectangle;overflow=hidden;connectable=0;fillColor=none;top=0;left=0;bottom=0;right=0;align=left;spacingLeft=6;" parent="C-vyLk0tnHw3VtMMgP7b-17" vertex="1"><mxGeometry x="30" width="220" height="30" as="geometry"><mxRectangle width="220" height="30" as="alternateBounds"/></mxGeometry></mxCell><mxCell id="C-vyLk0tnHw3VtMMgP7b-20" value="" style="shape=partialRectangle;collapsible=0;dropTarget=0;pointerEvents=0;fillColor=none;points=[[0,0.5],[1,0.5]];portConstraint=eastwest;top=0;left=0;right=0;bottom=0;" parent="C-vyLk0tnHw3VtMMgP7b-13" vertex="1"><mxGeometry y="90" width="250" height="30" as="geometry"/></mxCell><mxCell id="C-vyLk0tnHw3VtMMgP7b-21" value="" style="shape=partialRectangle;overflow=hidden;connectable=0;fillColor=none;top=0;left=0;bottom=0;right=0;" parent="C-vyLk0tnHw3VtMMgP7b-20" vertex="1"><mxGeometry width="30" height="30" as="geometry"><mxRectangle width="30" height="30" as="alternateBounds"/></mxGeometry></mxCell><mxCell id="C-vyLk0tnHw3VtMMgP7b-22" value="Beschreibung" style="shape=partialRectangle;overflow=hidden;connectable=0;fillColor=none;top=0;left=0;bottom=0;right=0;align=left;spacingLeft=6;" parent="C-vyLk0tnHw3VtMMgP7b-20" vertex="1"><mxGeometry x="30" width="220" height="30" as="geometry"><mxRectangle width="220" height="30" as="alternateBounds"/></mxGeometry></mxCell><mxCell id="7by-rzvmtqrk1CnBL58m-1" value="" style="shape=partialRectangle;collapsible=0;dropTarget=0;pointerEvents=0;fillColor=none;points=[[0,0.5],[1,0.5]];portConstraint=eastwest;top=0;left=0;right=0;bottom=0;" parent="C-vyLk0tnHw3VtMMgP7b-13" vertex="1"><mxGeometry y="120" width="250" height="30" as="geometry"/></mxCell><mxCell id="7by-rzvmtqrk1CnBL58m-2" value="" style="shape=partialRectangle;overflow=hidden;connectable=0;fillColor=none;top=0;left=0;bottom=0;right=0;" parent="7by-rzvmtqrk1CnBL58m-1" vertex="1"><mxGeometry width="30" height="30" as="geometry"><mxRectangle width="30" height="30" as="alternateBounds"/></mxGeometry></mxCell><mxCell id="7by-rzvmtqrk1CnBL58m-3" value="Erstellungdatum" style="shape=partialRectangle;overflow=hidden;connectable=0;fillColor=none;top=0;left=0;bottom=0;right=0;align=left;spacingLeft=6;" parent="7by-rzvmtqrk1CnBL58m-1" vertex="1"><mxGeometry x="30" width="220" height="30" as="geometry"><mxRectangle width="220" height="30" as="alternateBounds"/></mxGeometry></mxCell><mxCell id="crZ4OeYeE7MiuuLSWQfI-1" value="" style="shape=partialRectangle;collapsible=0;dropTarget=0;pointerEvents=0;fillColor=none;points=[[0,0.5],[1,0.5]];portConstraint=eastwest;top=0;left=0;right=0;bottom=0;" parent="C-vyLk0tnHw3VtMMgP7b-13" vertex="1"><mxGeometry y="150" width="250" height="30" as="geometry"/></mxCell><mxCell id="crZ4OeYeE7MiuuLSWQfI-2" value="FK" style="shape=partialRectangle;overflow=hidden;connectable=0;fillColor=none;top=0;left=0;bottom=0;right=0;" parent="crZ4OeYeE7MiuuLSWQfI-1" vertex="1"><mxGeometry width="30" height="30" as="geometry"><mxRectangle width="30" height="30" as="alternateBounds"/></mxGeometry></mxCell><mxCell id="crZ4OeYeE7MiuuLSWQfI-3" value="Gruppen_ID" style="shape=partialRectangle;overflow=hidden;connectable=0;fillColor=none;top=0;left=0;bottom=0;right=0;align=left;spacingLeft=6;" parent="crZ4OeYeE7MiuuLSWQfI-1" vertex="1"><mxGeometry x="30" width="220" height="30" as="geometry"><mxRectangle width="220" height="30" as="alternateBounds"/></mxGeometry></mxCell><mxCell id="C-vyLk0tnHw3VtMMgP7b-23" value="Benutzer" style="shape=table;startSize=30;container=1;collapsible=1;childLayout=tableLayout;fixedRows=1;rowLines=0;fontStyle=1;align=center;resizeLast=1;" parent="1" vertex="1"><mxGeometry x="-160" y="120" width="250" height="100" as="geometry"/></mxCell><mxCell id="C-vyLk0tnHw3VtMMgP7b-24" value="" style="shape=partialRectangle;collapsible=0;dropTarget=0;pointerEvents=0;fillColor=none;points=[[0,0.5],[1,0.5]];portConstraint=eastwest;top=0;left=0;right=0;bottom=1;" parent="C-vyLk0tnHw3VtMMgP7b-23" vertex="1"><mxGeometry y="30" width="250" height="30" as="geometry"/></mxCell><mxCell id="C-vyLk0tnHw3VtMMgP7b-25" value="PK" style="shape=partialRectangle;overflow=hidden;connectable=0;fillColor=none;top=0;left=0;bottom=0;right=0;fontStyle=1;" parent="C-vyLk0tnHw3VtMMgP7b-24" vertex="1"><mxGeometry width="30" height="30" as="geometry"><mxRectangle width="30" height="30" as="alternateBounds"/></mxGeometry></mxCell><mxCell id="C-vyLk0tnHw3VtMMgP7b-26" value="LDAP_UUID" style="shape=partialRectangle;overflow=hidden;connectable=0;fillColor=none;top=0;left=0;bottom=0;right=0;align=left;spacingLeft=6;fontStyle=5;" parent="C-vyLk0tnHw3VtMMgP7b-24" vertex="1"><mxGeometry x="30" width="220" height="30" as="geometry"><mxRectangle width="220" height="30" as="alternateBounds"/></mxGeometry></mxCell><mxCell id="C-vyLk0tnHw3VtMMgP7b-27" value="" style="shape=partialRectangle;collapsible=0;dropTarget=0;pointerEvents=0;fillColor=none;points=[[0,0.5],[1,0.5]];portConstraint=eastwest;top=0;left=0;right=0;bottom=0;" parent="C-vyLk0tnHw3VtMMgP7b-23" vertex="1"><mxGeometry y="60" width="250" height="30" as="geometry"/></mxCell><mxCell id="C-vyLk0tnHw3VtMMgP7b-28" value="" style="shape=partialRectangle;overflow=hidden;connectable=0;fillColor=none;top=0;left=0;bottom=0;right=0;" parent="C-vyLk0tnHw3VtMMgP7b-27" vertex="1"><mxGeometry width="30" height="30" as="geometry"><mxRectangle width="30" height="30" as="alternateBounds"/></mxGeometry></mxCell><mxCell id="C-vyLk0tnHw3VtMMgP7b-29" value="" style="shape=partialRectangle;overflow=hidden;connectable=0;fillColor=none;top=0;left=0;bottom=0;right=0;align=left;spacingLeft=6;" parent="C-vyLk0tnHw3VtMMgP7b-27" vertex="1"><mxGeometry x="30" width="220" height="30" as="geometry"><mxRectangle width="220" height="30" as="alternateBounds"/></mxGeometry></mxCell><mxCell id="crZ4OeYeE7MiuuLSWQfI-4" value="rel_Benutzer_Gruppe" style="shape=table;startSize=30;container=1;collapsible=1;childLayout=tableLayout;fixedRows=1;rowLines=0;fontStyle=1;align=center;resizeLast=1;" parent="1" vertex="1"><mxGeometry x="180" y="90" width="150" height="100" as="geometry"/></mxCell><mxCell id="crZ4OeYeE7MiuuLSWQfI-8" value="" style="shape=partialRectangle;collapsible=0;dropTarget=0;pointerEvents=0;fillColor=none;points=[[0,0.5],[1,0.5]];portConstraint=eastwest;top=0;left=0;right=0;bottom=0;" parent="crZ4OeYeE7MiuuLSWQfI-4" vertex="1"><mxGeometry y="30" width="150" height="30" as="geometry"/></mxCell><mxCell id="crZ4OeYeE7MiuuLSWQfI-9" value="FK/PK" style="shape=partialRectangle;overflow=hidden;connectable=0;fillColor=none;top=0;left=0;bottom=0;right=0;" parent="crZ4OeYeE7MiuuLSWQfI-8" vertex="1"><mxGeometry width="40" height="30" as="geometry"><mxRectangle width="40" height="30" as="alternateBounds"/></mxGeometry></mxCell><mxCell id="crZ4OeYeE7MiuuLSWQfI-10" value="Gruppen_ID" style="shape=partialRectangle;overflow=hidden;connectable=0;fillColor=none;top=0;left=0;bottom=0;right=0;align=left;spacingLeft=6;" parent="crZ4OeYeE7MiuuLSWQfI-8" vertex="1"><mxGeometry x="40" width="110" height="30" as="geometry"><mxRectangle width="110" height="30" as="alternateBounds"/></mxGeometry></mxCell><mxCell id="TaR9nvhgpgyglGoi-d57-1" value="" style="shape=partialRectangle;collapsible=0;dropTarget=0;pointerEvents=0;fillColor=none;points=[[0,0.5],[1,0.5]];portConstraint=eastwest;top=0;left=0;right=0;bottom=0;" parent="crZ4OeYeE7MiuuLSWQfI-4" vertex="1"><mxGeometry y="60" width="150" height="30" as="geometry"/></mxCell><mxCell id="TaR9nvhgpgyglGoi-d57-2" value="FK/PK" style="shape=partialRectangle;overflow=hidden;connectable=0;fillColor=none;top=0;left=0;bottom=0;right=0;" parent="TaR9nvhgpgyglGoi-d57-1" vertex="1"><mxGeometry width="40" height="30" as="geometry"><mxRectangle width="40" height="30" as="alternateBounds"/></mxGeometry></mxCell><mxCell id="TaR9nvhgpgyglGoi-d57-3" value="Benutzer_ID" style="shape=partialRectangle;overflow=hidden;connectable=0;fillColor=none;top=0;left=0;bottom=0;right=0;align=left;spacingLeft=6;" parent="TaR9nvhgpgyglGoi-d57-1" vertex="1"><mxGeometry x="40" width="110" height="30" as="geometry"><mxRectangle width="110" height="30" as="alternateBounds"/></mxGeometry></mxCell><mxCell id="Dlsj01A4D9VCu0jCpLip-1" style="edgeStyle=none;rounded=0;orthogonalLoop=1;jettySize=auto;html=1;exitX=0;exitY=0.5;exitDx=0;exitDy=0;entryX=1;entryY=0.5;entryDx=0;entryDy=0;fontSize=15;endArrow=none;endFill=0;" parent="1" source="C-vyLk0tnHw3VtMMgP7b-3" target="crZ4OeYeE7MiuuLSWQfI-8" edge="1"><mxGeometry relative="1" as="geometry"><mxPoint x="340" y="115" as="targetPoint"/></mxGeometry></mxCell><mxCell id="Dlsj01A4D9VCu0jCpLip-2" style="edgeStyle=none;rounded=0;orthogonalLoop=1;jettySize=auto;html=1;exitX=0;exitY=0.5;exitDx=0;exitDy=0;fontSize=15;endArrow=none;endFill=0;entryX=1;entryY=0.5;entryDx=0;entryDy=0;" parent="1" source="TaR9nvhgpgyglGoi-d57-1" target="C-vyLk0tnHw3VtMMgP7b-24" edge="1"><mxGeometry relative="1" as="geometry"><mxPoint x="140" y="130" as="targetPoint"/></mxGeometry></mxCell></root></mxGraphModel></diagram></mxfile>